<svg xmlns="http://www.w3.org/2000/svg" width="110" height="143" fill="none"><path fill="url(#a)" d="M52.874 105.344c1.718-7.333 2.61-15.188 2.625-23.124V82l.001.22c.016 7.936.908 15.79 2.626 23.124 1.734 7.401 4.275 14.125 7.479 19.79 3.203 5.664 7.006 10.157 11.192 13.223 4.148 3.037 8.59 4.614 13.078 4.643H90 21h.124c4.489-.029 8.931-1.606 13.078-4.643 4.186-3.066 7.99-7.559 11.193-13.223 3.204-5.665 5.745-12.389 7.479-19.79Z"/><path fill="url(#b)" d="M106.5 35c0 14.412-10.085 27.935-21.448 38.579-11.34 10.624-23.842 18.275-28.456 20.946a3.128 3.128 0 0 1-3.193 0c-4.614-2.672-17.115-10.322-28.456-20.946C13.584 62.935 3.5 49.412 3.5 35A26.5 26.5 0 0 1 30 8.5c10.253 0 19.117 5.152 23.525 13.52.31.587.91.86 1.475.86.564 0 1.165-.273 1.475-.86C60.882 13.651 69.747 8.5 80 8.5A26.5 26.5 0 0 1 106.5 35Z"/><path fill="url(#c)" d="M106.5 35c0 14.412-10.085 27.935-21.448 38.579-11.34 10.624-23.842 18.275-28.456 20.946a3.128 3.128 0 0 1-3.193 0c-4.614-2.672-17.115-10.322-28.456-20.946C13.584 62.935 3.5 49.412 3.5 35A26.5 26.5 0 0 1 30 8.5c10.253 0 19.117 5.152 23.525 13.52.31.587.91.86 1.475.86.564 0 1.165-.273 1.475-.86C60.882 13.651 69.747 8.5 80 8.5A26.5 26.5 0 0 1 106.5 35Z"/><path stroke="url(#d)" d="M106.5 35c0 14.412-10.085 27.935-21.448 38.579-11.34 10.624-23.842 18.275-28.456 20.946a3.128 3.128 0 0 1-3.193 0c-4.614-2.672-17.115-10.322-28.456-20.946C13.584 62.935 3.5 49.412 3.5 35A26.5 26.5 0 0 1 30 8.5c10.253 0 19.117 5.152 23.525 13.52.31.587.91.86 1.475.86.564 0 1.165-.273 1.475-.86C60.882 13.651 69.747 8.5 80 8.5A26.5 26.5 0 0 1 106.5 35Z"/><g filter="url(#e)"><path fill="url(#f)" d="M100.561 102.364c-2.588 3.835-9.211 4.335-12.67 4.318a3.314 3.314 0 0 1-3.073-2.073c-1.309-3.201-3.324-9.53-.737-13.365a5.263 5.263 0 0 1 3.321-2.219 5.128 5.128 0 0 1 3.882.772c1.048.707 1.78 1.695 2.12 2.796.266.859 1.52 1.705 2.417 1.63 1.148-.097 2.337.212 3.386.92a5.125 5.125 0 0 1 2.168 3.31 5.266 5.266 0 0 1-.814 3.911Z"/><path fill="url(#g)" d="M100.561 102.364c-2.588 3.835-9.211 4.335-12.67 4.318a3.314 3.314 0 0 1-3.073-2.073c-1.309-3.201-3.324-9.53-.737-13.365a5.263 5.263 0 0 1 3.321-2.219 5.128 5.128 0 0 1 3.882.772c1.048.707 1.78 1.695 2.12 2.796.266.859 1.52 1.705 2.417 1.63 1.148-.097 2.337.212 3.386.92a5.125 5.125 0 0 1 2.168 3.31 5.266 5.266 0 0 1-.814 3.911Z"/><path stroke="url(#h)" d="M100.146 102.084c-1.19 1.765-3.347 2.807-5.715 3.398-2.354.588-4.828.708-6.537.7a2.815 2.815 0 0 1-2.613-1.762c-.647-1.583-1.462-3.922-1.797-6.325-.338-2.417-.18-4.806 1.012-6.571a4.763 4.763 0 0 1 3.005-2.009 4.628 4.628 0 0 1 3.503.696c.959.647 1.618 1.542 1.923 2.53.178.578.658 1.087 1.17 1.432.51.345 1.162.599 1.766.548 1.029-.086 2.106.19 3.064.836a4.626 4.626 0 0 1 1.957 2.989 4.759 4.759 0 0 1-.738 3.538Z"/></g><path fill="url(#i)" d="M18.525 92.112c.844 3.149 6.458 4.508 6.458 4.508s4.183-3.984 3.34-7.133a2.685 2.685 0 0 0-1.234-1.623 2.616 2.616 0 0 0-2-.272c-1.065.285-1.819 1.116-1.947 2.158-.631-.838-1.7-1.181-2.764-.896a2.616 2.616 0 0 0-1.596 1.236 2.685 2.685 0 0 0-.257 2.022Z" opacity=".5"/><path fill="url(#j)" d="M94.368 78.148c1.09 4.07 8.347 5.827 8.347 5.827s5.405-5.15 4.315-9.22a3.471 3.471 0 0 0-1.594-2.096 3.38 3.38 0 0 0-2.585-.352c-1.376.368-2.35 1.443-2.515 2.788-.816-1.082-2.198-1.526-3.573-1.157a3.382 3.382 0 0 0-2.063 1.598 3.47 3.47 0 0 0-.332 2.612Z" opacity=".2"/><g stroke-linecap="round" stroke-linejoin="round" opacity=".3"><path stroke="url(#k)" d="M95.256 140.514c-14.586-2.84-33.046-17.395-35.886-49.7"/><path stroke="url(#l)" stroke-width=".5" d="M95.225 135.899c-9.523-1.501-21.576-9.195-23.43-26.27" opacity=".5"/></g><g stroke-linecap="round" stroke-linejoin="round" opacity=".3"><path stroke="url(#m)" d="M14.995 140.514c14.586-2.84 33.046-17.395 35.886-49.7"/><path stroke="url(#n)" stroke-width=".5" d="M15.026 135.899c9.523-1.501 21.575-9.195 23.43-26.27" opacity=".5"/></g><path stroke="url(#o)" stroke-linecap="round" stroke-linejoin="round" d="M71.44 4.905c8.638-2.722 26.483-2.343 37.275 15.265" opacity=".5"/><path stroke="url(#p)" stroke-linecap="round" stroke-linejoin="round" d="M78.895 1.522c5.923-1.873 22.065 1.022 29.465 13.135" opacity=".2"/><path stroke="url(#q)" stroke-linecap="round" stroke-linejoin="round" d="M38.07 4.905C29.43 2.183 11.587 2.562.795 20.17" opacity=".5"/><path stroke="url(#r)" stroke-linecap="round" stroke-linejoin="round" d="M30.615 1.522C24.69-.351 8.55 2.544 1.15 14.657" opacity=".2"/><ellipse cx="30" cy="109.5" fill="#C5B9F7" opacity=".2" rx="2" ry="2.5"/><defs><linearGradient id="c" x1="55" x2="55" y1="8" y2="96" gradientUnits="userSpaceOnUse"><stop stop-color="#002"/><stop offset="1" stop-color="#002" stop-opacity="0"/></linearGradient><linearGradient id="d" x1="55" x2="55" y1="8" y2="96" gradientUnits="userSpaceOnUse"><stop stop-color="#C5B9F7" stop-opacity=".5"/><stop offset="1" stop-color="#C5B9F7" stop-opacity="0"/></linearGradient><linearGradient id="g" x1="95.245" x2="85.714" y1="92.47" y2="106.595" gradientUnits="userSpaceOnUse"><stop stop-color="#002"/><stop offset="1" stop-color="#002" stop-opacity="0"/></linearGradient><linearGradient id="h" x1="95.245" x2="85.714" y1="92.47" y2="106.595" gradientUnits="userSpaceOnUse"><stop stop-color="#C5B9F7" stop-opacity=".5"/><stop offset="1" stop-color="#C5B9F7" stop-opacity="0"/></linearGradient><linearGradient id="k" x1="59.37" x2="95.256" y1="115.664" y2="115.664" gradientUnits="userSpaceOnUse"><stop stop-color="#C5B9F7" stop-opacity="0"/><stop offset=".505" stop-color="#C5B9F6"/><stop offset="1" stop-color="#C5B9F6" stop-opacity="0"/></linearGradient><linearGradient id="l" x1="71.795" x2="95.225" y1="122.764" y2="122.764" gradientUnits="userSpaceOnUse"><stop stop-color="#C5B9F7" stop-opacity="0"/><stop offset=".505" stop-color="#C5B9F6"/><stop offset="1" stop-color="#C5B9F6" stop-opacity="0"/></linearGradient><linearGradient id="m" x1="50.881" x2="14.995" y1="115.664" y2="115.664" gradientUnits="userSpaceOnUse"><stop stop-color="#C5B9F7" stop-opacity="0"/><stop offset=".505" stop-color="#C5B9F6"/><stop offset="1" stop-color="#C5B9F6" stop-opacity="0"/></linearGradient><linearGradient id="n" x1="38.456" x2="15.026" y1="122.764" y2="122.764" gradientUnits="userSpaceOnUse"><stop stop-color="#C5B9F7" stop-opacity="0"/><stop offset=".505" stop-color="#C5B9F6"/><stop offset="1" stop-color="#C5B9F6" stop-opacity="0"/></linearGradient><linearGradient id="o" x1="71.44" x2="110.845" y1="11.056" y2="11.056" gradientUnits="userSpaceOnUse"><stop stop-color="#C5B9F7" stop-opacity="0"/><stop offset=".505" stop-color="#C5B9F6"/><stop offset="1" stop-color="#C5B9F6" stop-opacity="0"/></linearGradient><linearGradient id="p" x1="80.315" x2="107.335" y1="8.306" y2="8.306" gradientUnits="userSpaceOnUse"><stop stop-color="#C5B9F7" stop-opacity="0"/><stop offset=".505" stop-color="#C5B9F6"/><stop offset="1" stop-color="#C5B9F6" stop-opacity="0"/></linearGradient><linearGradient id="q" x1="38.07" x2="-1.335" y1="11.056" y2="11.056" gradientUnits="userSpaceOnUse"><stop stop-color="#C5B9F7" stop-opacity="0"/><stop offset=".505" stop-color="#C5B9F6"/><stop offset="1" stop-color="#C5B9F6" stop-opacity="0"/></linearGradient><linearGradient id="r" x1="29.195" x2="2.174" y1="8.306" y2="8.306" gradientUnits="userSpaceOnUse"><stop stop-color="#C5B9F7" stop-opacity="0"/><stop offset=".505" stop-color="#C5B9F6"/><stop offset="1" stop-color="#C5B9F6" stop-opacity="0"/></linearGradient><radialGradient id="a" cx="0" cy="0" r="1" gradientTransform="matrix(0 47.8779 -97.884 0 55.5 95.122)" gradientUnits="userSpaceOnUse"><stop stop-color="#002" stop-opacity="0"/><stop offset=".605" stop-color="#B8A1F3" stop-opacity=".7"/><stop offset="1" stop-color="#002"/></radialGradient><radialGradient id="b" cx="0" cy="0" r="1" gradientTransform="matrix(-3.07457 88 -187.95032 -6.56665 58.074 8)" gradientUnits="userSpaceOnUse"><stop stop-color="#002" stop-opacity="0"/><stop offset=".693" stop-color="#8258F2"/><stop offset="1" stop-color="#E3DDFE"/></radialGradient><radialGradient id="f" cx="0" cy="0" r="1" gradientTransform="matrix(-10.01819 13.79644 -29.0897 -21.12326 95.733 92.799)" gradientUnits="userSpaceOnUse"><stop stop-color="#002" stop-opacity="0"/><stop offset=".693" stop-color="#8258F2"/><stop offset="1" stop-color="#E3DDFE"/></radialGradient><radialGradient id="i" cx="0" cy="0" r="1" gradientTransform="matrix(2.53982 8.31996 -17.54252 5.35519 22.444 88.3)" gradientUnits="userSpaceOnUse"><stop stop-color="#8258F2" stop-opacity=".3"/><stop offset=".541" stop-color="#8258F2"/><stop offset="1" stop-color="#E3DDFE"/></radialGradient><radialGradient id="j" cx="0" cy="0" r="1" gradientTransform="matrix(3.28243 10.75244 -22.67134 6.92094 99.433 73.223)" gradientUnits="userSpaceOnUse"><stop stop-color="#8258F2" stop-opacity=".3"/><stop offset=".541" stop-color="#8258F2"/><stop offset="1" stop-color="#E3DDFE"/></radialGradient><filter id="e" width="26.637" height="25.76" x="78.828" y="84.924" color-interpolation-filters="sRGB" filterUnits="userSpaceOnUse"><feFlood flood-opacity="0" result="BackgroundImageFix"/><feBlend in="SourceGraphic" in2="BackgroundImageFix" result="shape"/><feGaussianBlur result="effect1_foregroundBlur_2077_2" stdDeviation="2"/></filter></defs></svg>