<svg xmlns="http://www.w3.org/2000/svg" width="400" height="109" fill="none"><ellipse cx="169.818" cy="53.73" fill="url(#a)" rx="43.448" ry="43.117" transform="rotate(-180 169.818 53.73)"/><ellipse cx="169.818" cy="53.73" fill="url(#b)" rx="43.448" ry="43.117" transform="rotate(-180 169.818 53.73)"/><path stroke="url(#c)" d="M163.185.5c-12.799 0-25.073 5.05-34.122 14.038-9.05 8.987-14.133 21.176-14.133 33.885"/><path stroke="url(#d)" d="M284.407 59.368c0 12.8-5.05 25.074-14.038 34.123-8.988 9.049-21.177 14.132-33.886 14.132"/><ellipse cx="230.182" cy="53.73" fill="url(#e)" rx="43.448" ry="43.117"/><ellipse cx="230.182" cy="53.73" fill="url(#f)" rx="43.448" ry="43.117"/><g style="mix-blend-mode:plus-lighter"><path fill="#C5B9F7" fill-opacity=".5" d="m200.122 23.337.588.582c17.234 17.055 17.494 44.815.583 62.189a.177.177 0 0 1-.249.004l-.605-.577c-17.677-16.872-17.93-45.01-.561-62.198a.173.173 0 0 1 .244 0Z"/><path stroke="url(#g)" stroke-linecap="round" stroke-linejoin="round" d="m200.122 23.337.588.582c17.234 17.055 17.494 44.815.583 62.189a.177.177 0 0 1-.249.004l-.605-.577c-17.677-16.872-17.93-45.01-.561-62.198a.173.173 0 0 1 .244 0Z"/></g><path stroke="url(#h)" stroke-linecap="round" stroke-linejoin="round" d="M273.63 24.821v0A456.76 456.76 0 0 0 396.683 7.935L399 7.287" opacity=".5"/><path stroke="url(#i)" stroke-linecap="round" stroke-linejoin="round" d="M273.63 35.342v0c41.678 0 83.244-4.313 124.034-12.87l1.336-.28" opacity=".5"/><path stroke="url(#j)" stroke-linecap="round" stroke-linejoin="round" d="M273.63 45.863v0c41.678 0 83.244-4.313 124.034-12.87l1.336-.281" opacity=".5"/><path stroke="url(#k)" stroke-linecap="round" stroke-linejoin="round" d="M273.63 56.383H399" opacity=".5"/><path stroke="url(#l)" stroke-linecap="round" stroke-linejoin="round" d="M273.63 66.904v0c41.678 0 83.244 4.313 124.034 12.87l1.336.28" opacity=".5"/><path stroke="url(#m)" stroke-linecap="round" stroke-linejoin="round" d="M273.63 77.424v0c41.678 0 83.244 4.313 124.034 12.87l1.336.281" opacity=".5"/><path stroke="url(#n)" stroke-linecap="round" stroke-linejoin="round" d="M273.63 87.945v0a456.8 456.8 0 0 1 123.053 16.886l2.317.648" opacity=".5"/><g filter="url(#o)"><circle cx="328.355" cy="43.448" r=".995" fill="#A399D2"/></g><g filter="url(#p)"><circle cx="347.592" cy="30.845" r=".995" fill="#A99ED8"/></g><g filter="url(#q)"><circle cx="295.851" cy="24.212" r=".995" fill="#4A4573"/></g><g filter="url(#r)"><circle cx="358.205" cy="83.248" r=".995" fill="#887FB5"/></g><g filter="url(#s)"><circle cx="311.108" cy="67.992" r=".995" fill="#7971A5"/></g><g filter="url(#t)"><circle cx="311.772" cy="89.882" r=".995" fill="#7B73A7"/></g><g filter="url(#u)"><circle cx="338.968" cy="56.715" r=".995" fill="#C4B8F5"/></g><path stroke="url(#v)" stroke-linecap="round" stroke-linejoin="round" d="M126.37 24.821v0A456.799 456.799 0 0 1 3.317 7.935L1 7.287" opacity=".5"/><path stroke="url(#w)" stroke-linecap="round" stroke-linejoin="round" d="M126.37 35.342v0A604.1 604.1 0 0 1 2.336 22.472L1 22.192" opacity=".5"/><path stroke="url(#x)" stroke-linecap="round" stroke-linejoin="round" d="M126.37 45.863v0A604.1 604.1 0 0 1 2.336 32.993L1 32.711" opacity=".5"/><path stroke="url(#y)" stroke-linecap="round" stroke-linejoin="round" d="M126.37 56.383H1" opacity=".5"/><path stroke="url(#z)" stroke-linecap="round" stroke-linejoin="round" d="M126.37 66.904v0A604.1 604.1 0 0 0 2.336 79.774L1 80.054" opacity=".5"/><path stroke="url(#A)" stroke-linecap="round" stroke-linejoin="round" d="M126.37 77.424v0A604.107 604.107 0 0 0 2.336 90.294L1 90.576" opacity=".5"/><path stroke="url(#B)" stroke-linecap="round" stroke-linejoin="round" d="M126.37 87.945v0A456.795 456.795 0 0 0 3.317 104.83L1 105.479" opacity=".5"/><g filter="url(#C)"><circle cx=".995" cy=".995" r=".995" fill="#A399D2" transform="matrix(-1 0 0 1 72.64 42.453)"/></g><g filter="url(#D)"><circle cx=".995" cy=".995" r=".995" fill="#A99ED8" transform="matrix(-1 0 0 1 53.403 29.85)"/></g><g filter="url(#E)"><circle cx=".995" cy=".995" r=".995" fill="#4A4573" transform="matrix(-1 0 0 1 105.144 23.217)"/></g><g filter="url(#F)"><circle cx=".995" cy=".995" r=".995" fill="#887FB5" transform="matrix(-1 0 0 1 42.79 82.253)"/></g><g filter="url(#G)"><circle cx=".995" cy=".995" r=".995" fill="#7971A5" transform="matrix(-1 0 0 1 89.887 66.997)"/></g><g filter="url(#H)"><circle cx=".995" cy=".995" r=".995" fill="#7B73A7" transform="matrix(-1 0 0 1 89.223 88.886)"/></g><g filter="url(#I)"><circle cx=".995" cy=".995" r=".995" fill="#C4B8F5" transform="matrix(-1 0 0 1 62.027 55.72)"/></g><defs><linearGradient id="b" x1="169.818" x2="169.818" y1="10.613" y2="96.847" gradientUnits="userSpaceOnUse"><stop stop-color="#002"/><stop offset="1" stop-color="#002" stop-opacity="0"/></linearGradient><linearGradient id="c" x1="163.185" x2="113.986" y1="0" y2="50.061" gradientUnits="userSpaceOnUse"><stop stop-color="#8A78D3"/><stop offset="1" stop-color="#8A78D3" stop-opacity="0"/></linearGradient><linearGradient id="d" x1="284.907" x2="234.846" y1="59.368" y2="108.568" gradientUnits="userSpaceOnUse"><stop stop-color="#8A78D3" stop-opacity="0"/><stop offset="1" stop-color="#8A78D3"/></linearGradient><linearGradient id="f" x1="230.182" x2="230.182" y1="10.613" y2="96.847" gradientUnits="userSpaceOnUse"><stop stop-color="#002"/><stop offset="1" stop-color="#002" stop-opacity="0"/></linearGradient><linearGradient id="g" x1="200" x2="200" y1="86.233" y2="23.216" gradientUnits="userSpaceOnUse"><stop stop-color="#C5B9F7" stop-opacity="0"/><stop offset="1" stop-color="#C5B9F7"/></linearGradient><linearGradient id="h" x1="273.63" x2="399" y1="16.054" y2="16.054" gradientUnits="userSpaceOnUse"><stop stop-color="#C5B9F7" stop-opacity="0"/><stop offset=".505" stop-color="#C5B9F6"/><stop offset="1" stop-color="#C5B9F6" stop-opacity="0"/></linearGradient><linearGradient id="i" x1="273.63" x2="399" y1="28.767" y2="28.767" gradientUnits="userSpaceOnUse"><stop stop-color="#C5B9F7" stop-opacity="0"/><stop offset=".505" stop-color="#C5B9F6"/><stop offset="1" stop-color="#C5B9F6" stop-opacity="0"/></linearGradient><linearGradient id="j" x1="273.63" x2="399" y1="41.479" y2="41.479" gradientUnits="userSpaceOnUse"><stop stop-color="#C5B9F7" stop-opacity="0"/><stop offset=".505" stop-color="#C5B9F6"/><stop offset="1" stop-color="#C5B9F6" stop-opacity="0"/></linearGradient><linearGradient id="k" x1="273.63" x2="399" y1="56.883" y2="56.883" gradientUnits="userSpaceOnUse"><stop stop-color="#C5B9F7" stop-opacity="0"/><stop offset=".505" stop-color="#C5B9F6"/><stop offset="1" stop-color="#C5B9F6" stop-opacity="0"/></linearGradient><linearGradient id="l" x1="273.63" x2="399" y1="71.287" y2="71.287" gradientUnits="userSpaceOnUse"><stop stop-color="#C5B9F7" stop-opacity="0"/><stop offset=".505" stop-color="#C5B9F6"/><stop offset="1" stop-color="#C5B9F6" stop-opacity="0"/></linearGradient><linearGradient id="m" x1="273.63" x2="399" y1="84" y2="84" gradientUnits="userSpaceOnUse"><stop stop-color="#C5B9F7" stop-opacity="0"/><stop offset=".505" stop-color="#C5B9F6"/><stop offset="1" stop-color="#C5B9F6" stop-opacity="0"/></linearGradient><linearGradient id="n" x1="273.63" x2="399" y1="96.712" y2="96.712" gradientUnits="userSpaceOnUse"><stop stop-color="#C5B9F7" stop-opacity="0"/><stop offset=".505" stop-color="#C5B9F6"/><stop offset="1" stop-color="#C5B9F6" stop-opacity="0"/></linearGradient><linearGradient id="v" x1="126.37" x2="1" y1="16.054" y2="16.054" gradientUnits="userSpaceOnUse"><stop stop-color="#C5B9F7" stop-opacity="0"/><stop offset=".505" stop-color="#C5B9F6"/><stop offset="1" stop-color="#C5B9F6" stop-opacity="0"/></linearGradient><linearGradient id="w" x1="126.37" x2="1" y1="28.767" y2="28.767" gradientUnits="userSpaceOnUse"><stop stop-color="#C5B9F7" stop-opacity="0"/><stop offset=".505" stop-color="#C5B9F6"/><stop offset="1" stop-color="#C5B9F6" stop-opacity="0"/></linearGradient><linearGradient id="x" x1="126.37" x2="1" y1="41.479" y2="41.479" gradientUnits="userSpaceOnUse"><stop stop-color="#C5B9F7" stop-opacity="0"/><stop offset=".505" stop-color="#C5B9F6"/><stop offset="1" stop-color="#C5B9F6" stop-opacity="0"/></linearGradient><linearGradient id="y" x1="126.37" x2="1" y1="56.883" y2="56.883" gradientUnits="userSpaceOnUse"><stop stop-color="#C5B9F7" stop-opacity="0"/><stop offset=".505" stop-color="#C5B9F6"/><stop offset="1" stop-color="#C5B9F6" stop-opacity="0"/></linearGradient><linearGradient id="z" x1="126.37" x2="1" y1="71.287" y2="71.287" gradientUnits="userSpaceOnUse"><stop stop-color="#C5B9F7" stop-opacity="0"/><stop offset=".505" stop-color="#C5B9F6"/><stop offset="1" stop-color="#C5B9F6" stop-opacity="0"/></linearGradient><linearGradient id="A" x1="126.37" x2="1" y1="84" y2="84" gradientUnits="userSpaceOnUse"><stop stop-color="#C5B9F7" stop-opacity="0"/><stop offset=".505" stop-color="#C5B9F6"/><stop offset="1" stop-color="#C5B9F6" stop-opacity="0"/></linearGradient><linearGradient id="B" x1="126.37" x2="1" y1="96.712" y2="96.712" gradientUnits="userSpaceOnUse"><stop stop-color="#C5B9F7" stop-opacity="0"/><stop offset=".505" stop-color="#C5B9F6"/><stop offset="1" stop-color="#C5B9F6" stop-opacity="0"/></linearGradient><filter id="o" width="5.99" height="5.99" x="325.36" y="40.453" color-interpolation-filters="sRGB" filterUnits="userSpaceOnUse"><feFlood flood-opacity="0" result="BackgroundImageFix"/><feColorMatrix in="SourceAlpha" result="hardAlpha" values="0 0 0 0 0 0 0 0 0 0 0 0 0 0 0 0 0 0 127 0"/><feMorphology in="SourceAlpha" operator="dilate" radius="2" result="effect1_dropShadow_2048_2"/><feOffset/><feComposite in2="hardAlpha" operator="out"/><feColorMatrix values="0 0 0 0 0 0 0 0 0 0 0 0 0 0 0.133333 0 0 0 1 0"/><feBlend in2="BackgroundImageFix" result="effect1_dropShadow_2048_2"/><feBlend in="SourceGraphic" in2="effect1_dropShadow_2048_2" result="shape"/></filter><filter id="p" width="5.99" height="5.99" x="344.597" y="27.85" color-interpolation-filters="sRGB" filterUnits="userSpaceOnUse"><feFlood flood-opacity="0" result="BackgroundImageFix"/><feColorMatrix in="SourceAlpha" result="hardAlpha" values="0 0 0 0 0 0 0 0 0 0 0 0 0 0 0 0 0 0 127 0"/><feMorphology in="SourceAlpha" operator="dilate" radius="2" result="effect1_dropShadow_2048_2"/><feOffset/><feComposite in2="hardAlpha" operator="out"/><feColorMatrix values="0 0 0 0 0 0 0 0 0 0 0 0 0 0 0.133333 0 0 0 1 0"/><feBlend in2="BackgroundImageFix" result="effect1_dropShadow_2048_2"/><feBlend in="SourceGraphic" in2="effect1_dropShadow_2048_2" result="shape"/></filter><filter id="q" width="5.99" height="5.99" x="292.856" y="21.217" color-interpolation-filters="sRGB" filterUnits="userSpaceOnUse"><feFlood flood-opacity="0" result="BackgroundImageFix"/><feColorMatrix in="SourceAlpha" result="hardAlpha" values="0 0 0 0 0 0 0 0 0 0 0 0 0 0 0 0 0 0 127 0"/><feMorphology in="SourceAlpha" operator="dilate" radius="2" result="effect1_dropShadow_2048_2"/><feOffset/><feComposite in2="hardAlpha" operator="out"/><feColorMatrix values="0 0 0 0 0 0 0 0 0 0 0 0 0 0 0.133333 0 0 0 1 0"/><feBlend in2="BackgroundImageFix" result="effect1_dropShadow_2048_2"/><feBlend in="SourceGraphic" in2="effect1_dropShadow_2048_2" result="shape"/></filter><filter id="r" width="5.99" height="5.99" x="355.21" y="80.253" color-interpolation-filters="sRGB" filterUnits="userSpaceOnUse"><feFlood flood-opacity="0" result="BackgroundImageFix"/><feColorMatrix in="SourceAlpha" result="hardAlpha" values="0 0 0 0 0 0 0 0 0 0 0 0 0 0 0 0 0 0 127 0"/><feMorphology in="SourceAlpha" operator="dilate" radius="2" result="effect1_dropShadow_2048_2"/><feOffset/><feComposite in2="hardAlpha" operator="out"/><feColorMatrix values="0 0 0 0 0 0 0 0 0 0 0 0 0 0 0.133333 0 0 0 1 0"/><feBlend in2="BackgroundImageFix" result="effect1_dropShadow_2048_2"/><feBlend in="SourceGraphic" in2="effect1_dropShadow_2048_2" result="shape"/></filter><filter id="s" width="5.99" height="5.99" x="308.113" y="64.997" color-interpolation-filters="sRGB" filterUnits="userSpaceOnUse"><feFlood flood-opacity="0" result="BackgroundImageFix"/><feColorMatrix in="SourceAlpha" result="hardAlpha" values="0 0 0 0 0 0 0 0 0 0 0 0 0 0 0 0 0 0 127 0"/><feMorphology in="SourceAlpha" operator="dilate" radius="2" result="effect1_dropShadow_2048_2"/><feOffset/><feComposite in2="hardAlpha" operator="out"/><feColorMatrix values="0 0 0 0 0 0 0 0 0 0 0 0 0 0 0.133333 0 0 0 1 0"/><feBlend in2="BackgroundImageFix" result="effect1_dropShadow_2048_2"/><feBlend in="SourceGraphic" in2="effect1_dropShadow_2048_2" result="shape"/></filter><filter id="t" width="5.99" height="5.99" x="308.777" y="86.886" color-interpolation-filters="sRGB" filterUnits="userSpaceOnUse"><feFlood flood-opacity="0" result="BackgroundImageFix"/><feColorMatrix in="SourceAlpha" result="hardAlpha" values="0 0 0 0 0 0 0 0 0 0 0 0 0 0 0 0 0 0 127 0"/><feMorphology in="SourceAlpha" operator="dilate" radius="2" result="effect1_dropShadow_2048_2"/><feOffset/><feComposite in2="hardAlpha" operator="out"/><feColorMatrix values="0 0 0 0 0 0 0 0 0 0 0 0 0 0 0.133333 0 0 0 1 0"/><feBlend in2="BackgroundImageFix" result="effect1_dropShadow_2048_2"/><feBlend in="SourceGraphic" in2="effect1_dropShadow_2048_2" result="shape"/></filter><filter id="u" width="5.99" height="5.99" x="335.973" y="53.72" color-interpolation-filters="sRGB" filterUnits="userSpaceOnUse"><feFlood flood-opacity="0" result="BackgroundImageFix"/><feColorMatrix in="SourceAlpha" result="hardAlpha" values="0 0 0 0 0 0 0 0 0 0 0 0 0 0 0 0 0 0 127 0"/><feMorphology in="SourceAlpha" operator="dilate" radius="2" result="effect1_dropShadow_2048_2"/><feOffset/><feComposite in2="hardAlpha" operator="out"/><feColorMatrix values="0 0 0 0 0 0 0 0 0 0 0 0 0 0 0.133333 0 0 0 1 0"/><feBlend in2="BackgroundImageFix" result="effect1_dropShadow_2048_2"/><feBlend in="SourceGraphic" in2="effect1_dropShadow_2048_2" result="shape"/></filter><filter id="C" width="5.99" height="5.99" x="68.65" y="40.453" color-interpolation-filters="sRGB" filterUnits="userSpaceOnUse"><feFlood flood-opacity="0" result="BackgroundImageFix"/><feColorMatrix in="SourceAlpha" result="hardAlpha" values="0 0 0 0 0 0 0 0 0 0 0 0 0 0 0 0 0 0 127 0"/><feMorphology in="SourceAlpha" operator="dilate" radius="2" result="effect1_dropShadow_2048_2"/><feOffset/><feComposite in2="hardAlpha" operator="out"/><feColorMatrix values="0 0 0 0 0 0 0 0 0 0 0 0 0 0 0.133333 0 0 0 1 0"/><feBlend in2="BackgroundImageFix" result="effect1_dropShadow_2048_2"/><feBlend in="SourceGraphic" in2="effect1_dropShadow_2048_2" result="shape"/></filter><filter id="D" width="5.99" height="5.99" x="49.413" y="27.85" color-interpolation-filters="sRGB" filterUnits="userSpaceOnUse"><feFlood flood-opacity="0" result="BackgroundImageFix"/><feColorMatrix in="SourceAlpha" result="hardAlpha" values="0 0 0 0 0 0 0 0 0 0 0 0 0 0 0 0 0 0 127 0"/><feMorphology in="SourceAlpha" operator="dilate" radius="2" result="effect1_dropShadow_2048_2"/><feOffset/><feComposite in2="hardAlpha" operator="out"/><feColorMatrix values="0 0 0 0 0 0 0 0 0 0 0 0 0 0 0.133333 0 0 0 1 0"/><feBlend in2="BackgroundImageFix" result="effect1_dropShadow_2048_2"/><feBlend in="SourceGraphic" in2="effect1_dropShadow_2048_2" result="shape"/></filter><filter id="E" width="5.99" height="5.99" x="101.153" y="21.217" color-interpolation-filters="sRGB" filterUnits="userSpaceOnUse"><feFlood flood-opacity="0" result="BackgroundImageFix"/><feColorMatrix in="SourceAlpha" result="hardAlpha" values="0 0 0 0 0 0 0 0 0 0 0 0 0 0 0 0 0 0 127 0"/><feMorphology in="SourceAlpha" operator="dilate" radius="2" result="effect1_dropShadow_2048_2"/><feOffset/><feComposite in2="hardAlpha" operator="out"/><feColorMatrix values="0 0 0 0 0 0 0 0 0 0 0 0 0 0 0.133333 0 0 0 1 0"/><feBlend in2="BackgroundImageFix" result="effect1_dropShadow_2048_2"/><feBlend in="SourceGraphic" in2="effect1_dropShadow_2048_2" result="shape"/></filter><filter id="F" width="5.99" height="5.99" x="38.8" y="80.253" color-interpolation-filters="sRGB" filterUnits="userSpaceOnUse"><feFlood flood-opacity="0" result="BackgroundImageFix"/><feColorMatrix in="SourceAlpha" result="hardAlpha" values="0 0 0 0 0 0 0 0 0 0 0 0 0 0 0 0 0 0 127 0"/><feMorphology in="SourceAlpha" operator="dilate" radius="2" result="effect1_dropShadow_2048_2"/><feOffset/><feComposite in2="hardAlpha" operator="out"/><feColorMatrix values="0 0 0 0 0 0 0 0 0 0 0 0 0 0 0.133333 0 0 0 1 0"/><feBlend in2="BackgroundImageFix" result="effect1_dropShadow_2048_2"/><feBlend in="SourceGraphic" in2="effect1_dropShadow_2048_2" result="shape"/></filter><filter id="G" width="5.99" height="5.99" x="85.897" y="64.997" color-interpolation-filters="sRGB" filterUnits="userSpaceOnUse"><feFlood flood-opacity="0" result="BackgroundImageFix"/><feColorMatrix in="SourceAlpha" result="hardAlpha" values="0 0 0 0 0 0 0 0 0 0 0 0 0 0 0 0 0 0 127 0"/><feMorphology in="SourceAlpha" operator="dilate" radius="2" result="effect1_dropShadow_2048_2"/><feOffset/><feComposite in2="hardAlpha" operator="out"/><feColorMatrix values="0 0 0 0 0 0 0 0 0 0 0 0 0 0 0.133333 0 0 0 1 0"/><feBlend in2="BackgroundImageFix" result="effect1_dropShadow_2048_2"/><feBlend in="SourceGraphic" in2="effect1_dropShadow_2048_2" result="shape"/></filter><filter id="H" width="5.99" height="5.99" x="85.233" y="86.886" color-interpolation-filters="sRGB" filterUnits="userSpaceOnUse"><feFlood flood-opacity="0" result="BackgroundImageFix"/><feColorMatrix in="SourceAlpha" result="hardAlpha" values="0 0 0 0 0 0 0 0 0 0 0 0 0 0 0 0 0 0 127 0"/><feMorphology in="SourceAlpha" operator="dilate" radius="2" result="effect1_dropShadow_2048_2"/><feOffset/><feComposite in2="hardAlpha" operator="out"/><feColorMatrix values="0 0 0 0 0 0 0 0 0 0 0 0 0 0 0.133333 0 0 0 1 0"/><feBlend in2="BackgroundImageFix" result="effect1_dropShadow_2048_2"/><feBlend in="SourceGraphic" in2="effect1_dropShadow_2048_2" result="shape"/></filter><filter id="I" width="5.99" height="5.99" x="58.037" y="53.72" color-interpolation-filters="sRGB" filterUnits="userSpaceOnUse"><feFlood flood-opacity="0" result="BackgroundImageFix"/><feColorMatrix in="SourceAlpha" result="hardAlpha" values="0 0 0 0 0 0 0 0 0 0 0 0 0 0 0 0 0 0 127 0"/><feMorphology in="SourceAlpha" operator="dilate" radius="2" result="effect1_dropShadow_2048_2"/><feOffset/><feComposite in2="hardAlpha" operator="out"/><feColorMatrix values="0 0 0 0 0 0 0 0 0 0 0 0 0 0 0.133333 0 0 0 1 0"/><feBlend in2="BackgroundImageFix" result="effect1_dropShadow_2048_2"/><feBlend in="SourceGraphic" in2="effect1_dropShadow_2048_2" result="shape"/></filter><radialGradient id="a" cx="0" cy="0" r="1" gradientTransform="matrix(-2.56944 86.23333 -157.09328 -4.6808 172.388 10.613)" gradientUnits="userSpaceOnUse"><stop stop-color="#002" stop-opacity="0"/><stop offset=".693" stop-color="#8258F2"/><stop offset="1" stop-color="#E3DDFE"/></radialGradient><radialGradient id="e" cx="0" cy="0" r="1" gradientTransform="matrix(-2.56944 86.23333 -157.09328 -4.6808 232.751 10.613)" gradientUnits="userSpaceOnUse"><stop stop-color="#002" stop-opacity="0"/><stop offset=".693" stop-color="#8258F2"/><stop offset="1" stop-color="#E3DDFE"/></radialGradient></defs></svg>